<svg id="Calque_1" data-name="Calque 1" xmlns="http://www.w3.org/2000/svg" viewBox="0 0 490.95 123.33"><defs><style>.cls-1{fill:#e74b4b;}</style></defs><path class="cls-1" d="M4.52,85.42C17.67,73.53,24.11,57.9,29.78,41.09c-3.12,1.16-4.78,3.07-6.65,4.74-3.08,2.76-6.94,2.82-9.69.26a6,6,0,0,1-.53-8.91c6.77-7.87,15.73-12,25.52-14.61a211.22,211.22,0,0,1,48.38-7.21c6.74-.21,13.71.26,20,3.43,4.57,2.32,5.39,4.86,3.82,9.64-1.65,5-5.2,8.48-9.32,11.51-11.12,8.18-23.81,13.18-36.6,18-7.74,2.91-15.52,5.72-23.23,8.72-4,1.56-4,1.89-.83,4.52,19,15.69,40.21,27,64.56,32a63.87,63.87,0,0,0,21.36,1c1.54-.2,3.59-1,4.34,1.13s.71,4.36-1.45,6a19.71,19.71,0,0,1-11.81,4.2c-15.5.42-30.16-3.38-44.39-9.12C57.74,100.15,43.94,91.1,31,80.64c-1-.84-2.11-1.64-3.28-2.56-2.48,4-4.3,8.15-7,11.88-4.53,6.34-11.33,6.71-16.24.14ZM88.57,25.47c-13.82,1-26.87,4.44-39.82,8.33A3.38,3.38,0,0,0,46.81,35c-2.88,5.25-5.94,10.43-7.3,16.36-.67,2.89.57,3.23,3,2.42,13.54-4.57,27.05-9.18,40-15.29a75.73,75.73,0,0,0,12.78-7.27c1.09-.8,2.36-1.62,1.94-3.18S95.33,26.16,94,26C92.13,25.68,90.23,25.61,88.57,25.47Z" transform="translate(-4.52 -11.74)"/><path class="cls-1" d="M381.94,11.74c4.48,2.71,5.56,7,2.95,12.32C379.53,35,374.07,45.81,368.69,56.7c-3.65,7.4-7.44,14.72-10.35,22.46-.69,1.84-.49,2.43,1.54,2.73,3.94.58,4.49,1.73,3.08,5.4a12.6,12.6,0,0,1-11.9,8.27A7.31,7.31,0,0,1,343.63,90c-1.24-4.27-.32-8.4,1-12.46a50.82,50.82,0,0,1,4.68-9.61c.95-1.63,1.91-3.28,2.75-5,.49-1,1-2.4-.22-3s-1.54,1-2,1.72c-5.29,8.54-10.5,17.13-15.77,25.67-2.73,4.43-4.69,5.46-7.59,4.17-4.33-1.92-5.85-5.45-4.35-10.16,2.18-6.9,4.39-13.79,6.54-20.7.49-1.57,1.18-3.15.52-5.49-1.64,2.72-3,5.06-4.46,7.39-5.26,8.54-9.8,17.53-16.07,25.45-1.78,2.25-3.76,3.95-6.81,3.29-3.55-.77-6.56-2.49-7.79-6.13-.88-2.64-.41-5,2.14-6.77a28.44,28.44,0,0,0,8.1-8.32C315.46,52.84,326.82,35.73,338,18.53c2-3.09,4.48-5.22,8.29-5.53,5.26-.42,7.58,2.32,6,7.38-2.79,9-5.7,18-8.55,27.06,0,.06.09.16.18.31,1.73.54,2.24-1,3-1.93,7.6-9.08,14.45-18.76,22.64-27.36a28,28,0,0,1,8.92-6.72Z" transform="translate(-4.52 -11.74)"/><path class="cls-1" d="M418.22,77c-3.37,4.07-5,8-7.37,11.46-3.68,5.39-5.34,5.59-8.93.2-1.87-2.8-2.85-2.54-5-.35-5.48,5.74-7.37,5.75-13.75.61a1.67,1.67,0,0,0-2.31-.18,47.57,47.57,0,0,1-5,2.8c-5.29,2.4-9.84-.66-9.67-6.42.15-4.69,1.9-8.89,4-13A86.64,86.64,0,0,1,382.62,55.1c1.13-1.28,2.36-2.78,4.23-1.63a4,4,0,0,1,1.75,5,88.48,88.48,0,0,1-7.33,16.47c-.73,1.31-2.85,3.08-1.29,4.24s2.82-1.3,3.92-2.38c3.81-3.72,5.93-8.61,8.66-13.08,1.57-2.56,3-5.22,4.77-7.66,1.22-1.69,3-2.81,5.25-1.63s1.72,3.19,1.31,5a16.13,16.13,0,0,1-2.43,5.11c-2.07,3.19-4.15,6.36-6.2,9.55a9.67,9.67,0,0,0-1.7,6.63c2.06.29,2.8-1.26,3.72-2.45,5.81-7.51,11.58-15.06,17.41-22.56,1.09-1.4,1.83-3.72,4.35-2.74s2.56,3.1,2.07,5.35a4.51,4.51,0,0,0,.05,1.12c2.51-.7,3.78-2.78,5.42-4.34a9.13,9.13,0,0,1,7.58-2.82c2.82.31,3.89,1.82,3.38,4.59a35.37,35.37,0,0,1-4.9,12c-2.05,3.39-4.15,6.78-4.95,11.16a12.77,12.77,0,0,0,6.45-5q4.88-7.21,9.79-14.41a27.36,27.36,0,0,1,6.63-7c3-2.08,6-3.08,9.32-.83,1.4,1,1.92.24,2.61-.78a123.9,123.9,0,0,0,7.45-12.69c.75-1.49,1.47-3,2.34-4.43,2-3.27,5-4.66,7.15-3.47s3.28,6,1.76,8.82a24.63,24.63,0,0,1-2.38,3.23c-7.71,10-13.85,20.78-16.51,33.26a38.76,38.76,0,0,0-.44,4.57c2.74-.56,3.8-2.45,4.8-4.37,3.21-6.12,6.33-12.29,9.62-18.36,2.53-4.68,6.68-6.72,11.93-6.65,4.28.06,7.19,2.51,7.26,6.73.2,12.4-4.2,22.91-13.89,30.89-4,3.33-8.08,3.44-12.35.41-2.46-1.75-4.46-2.19-6.9-.21-2.84,2.31-5.64,2-8-.76-1.65-1.93-2.84-1.52-4.17.23a14.44,14.44,0,0,1-1.65,1.67c-4.38,4.2-7.43,4-11.07-.87-3-4-3-4-7.29-1-1.1.76-2.21,1.53-3.37,2.2-4.72,2.76-8.54.94-9-4.51C417.6,83.83,418,80.92,418.22,77Zm71.2-15a3.17,3.17,0,0,0-1.49-2.92c-1.28-.77-2.47-.08-3.33.76-5.11,5-7.67,11.44-9,18.31-.37,2,1.14,3.16,2.9,1.7A32,32,0,0,0,489.42,62.05ZM444,81.71c1.07.57,1.67,0,2.25-.5a41.56,41.56,0,0,0,12.11-15.27c.67-1.52,1.62-3.32-.26-4.45-1.68-1-3.12.23-4.38,1.44C448.35,68.12,445.53,74.59,444,81.71Z" transform="translate(-4.52 -11.74)"/><path class="cls-1" d="M261.23,84.76c2.29-1.91,4.48-4,6.92-5.69,2.16-1.53,5.09-3.73,7.27-1.85s.26,5.07-1,7.31c-3.54,6.15-8.82,10.06-16,11-4.48.57-5.23,0-6.34-4.41-.6-2.37-1.33-2.77-3.5-1.43-5.24,3.24-11.1,5.23-16.65,7.86C218.8,103.74,203.41,92.4,205.34,77,207,63.79,213.53,54.46,226.45,50a8.22,8.22,0,0,0,1-.52c-1.08-1.51-2.21-2.88-3.1-4.39-3-5.08-3.24-10.3.44-15,8.73-11.22,20.21-16.51,34.59-15.17a16.47,16.47,0,0,1,6.88,2.44c4,2.31,4.33,4.52,1.3,8a13.63,13.63,0,0,1-8.1,4.39c-1.82.34-3.36,0-3.93-2.12-.45-1.62-1.56-2-3.11-1.68-6.59,1.45-12.1,4.53-15.88,10.29a5.15,5.15,0,0,0,0,6.22c1.35,2,3.13,2,5.3,1.73,3.43-.49,6.91-.62,10.37-.86a7.89,7.89,0,0,1,5.08,1.43c1.73,1.18,3.06,2.78,2.77,5s-2,3.29-4.23,3.63c-3.09.49-6.15,1.22-9.25,1.56C235.14,56.2,227.24,62.71,221,71.6a10.43,10.43,0,0,0-.49,12,5.36,5.36,0,0,0,5.55,2.84c14.7-1,25.9-7.5,33.41-20.35,4.16-7.13,8.88-13.93,13.32-20.89a24.37,24.37,0,0,1,6.92-6.73c2-1.4,4.19-1.78,6.15,0s1.17,3.67.23,5.53c-3.66,7.2-8.61,13.55-13.3,20.08-4.3,6-8.83,11.81-11.56,18.74-.2.49-.36,1-.54,1.48Z" transform="translate(-4.52 -11.74)"/><path class="cls-1" d="M147.89,87.39a9.87,9.87,0,0,0,5.25-4.87c3.68-6.75,6.64-13.91,11.23-20.14,3.54-4.79,9.15-5.76,13.93-2.65a9.78,9.78,0,0,1,4.31,10.76A47.11,47.11,0,0,1,170.2,92.35c-5.91,5.78-9.86,6-16.15.7-1.22-1-2-.9-3.11.14-4.88,4.39-9.42,3.65-12.46-2.12-1.07-2-1.88-1.8-3.1-.33-.5.6-1,1.19-1.56,1.75-3,3.05-5.46,3.4-8.85.73-2.32-1.82-4-2-6.36,0-3.51,3.06-5.88,3-9.62.2-1.57-1.2-2.83-1.37-4.48-.45-1.17.65-2.46,1.08-3.67,1.66C98.18,96,95.9,96.06,94.42,93c-.88-1.86-1.94-1.43-3.43-.45-5.58,3.71-9,2.35-10.75-4.17a15.16,15.16,0,0,1,.11-8.26A39.55,39.55,0,0,1,95.13,58.72c3.32-2.47,6.8-3.39,10.51-.76,1.22.86,2.6.42,3.92.5,4.33.24,5.68,2.42,3.47,6.17-3.39,5.76-7.46,11.14-9.83,17.46-.54,1.43-2.39,3.38-.54,4.33,1.5.76,2.24-1.74,3-3a183.84,183.84,0,0,1,13.7-21c2.9-3.71,6.4-5.48,11.14-3.8,2.23.79,3.55-.31,4.63-2.16q4.57-7.8,9.29-15.51a15.56,15.56,0,0,1,2.66-3.41,4.69,4.69,0,0,1,5.92-.44c1.91,1.28,1.19,3.39.3,5.1-1.45,2.77-3,5.46-4.53,8.21q-7.26,13.38-14.49,26.77c-1,1.95-2.62,5-.92,6,1.87,1.09,3.17-2.08,4.36-3.74a178.88,178.88,0,0,0,10.71-17c1.07-1.89,2.33-3.6,4.58-4.16,1.68-.43,3.46-.44,4.67,1s.17,2.81-.55,4A161.28,161.28,0,0,0,148.56,81,8.85,8.85,0,0,0,147.89,87.39Zm13.45-2.59c-.12,1.08.07,2.13.95,2.41a2.43,2.43,0,0,0,2.1-.74c4.07-5.27,8.85-10.09,10.69-16.8A3.13,3.13,0,0,0,174,66.14c-1.25-1-2.6-.47-3.62.52C165.14,71.67,162.61,78,161.34,84.8Zm-46.61-.33c-.22,1.44-.31,2,.19,2.42s1.11,0,1.47-.32a42.43,42.43,0,0,0,13-17.07,2.27,2.27,0,0,0-.85-2.93,2.2,2.2,0,0,0-3,.11A35.16,35.16,0,0,0,114.73,84.47Zm-13-16.64c.41-1.17-.24-1.94-1-2.65s-1.59-.22-2.09.28A38.89,38.89,0,0,0,88.6,82.57a2.23,2.23,0,0,0,.28,1.89c.65.58,1.55.08,2.12-.41A33.66,33.66,0,0,0,101.73,67.83Z" transform="translate(-4.52 -11.74)"/><path class="cls-1" d="M226.82,130.9c1.61-4.56,3.19-9,4.69-13.37.44-1.29,1-2.1,2.56-2,1.89.1,1.37,1.54,1.45,2.44.41,5,.7,10,1,15,0,.74.6,1.9-.94,2s-1.47-.94-1.52-2a88.1,88.1,0,0,0-1.27-12.53c-1.4,3.94-2.77,7.89-4.23,11.81-.39,1-.26,2.7-2,2.65-1.55,0-1.36-1.59-1.69-2.54-1.34-3.87-2.56-7.79-4.1-12.53-.91,4.53-.73,8.31-1.07,12-.11,1.15.66,3.15-1.5,3-1.92-.14-.92-2-.87-2.93.24-4.78.66-9.55,1-14.32.08-.92-.19-2.05,1.43-2.1a2.08,2.08,0,0,1,2.42,1.65C223.68,121.72,225.25,126.23,226.82,130.9Z" transform="translate(-4.52 -11.74)"/><path class="cls-1" d="M168.68,45.48a9.26,9.26,0,0,1-9,9,3.36,3.36,0,0,1-3.43-2.17c-2-5,1.81-11.21,7.2-11.67C167,40.35,168.69,41.92,168.68,45.48Z" transform="translate(-4.52 -11.74)"/><path class="cls-1" d="M157.5,127.49c-.79.2-1.29.35-1.8.47-3.55.82-6.19-.6-7-3.79a6.47,6.47,0,0,1,4.31-7.66c2.91-.92,5.72.52,7,3.58,2.52,6.18-1.2,13.72-7.3,14.71-.88.15-2.22.76-2.56-.57-.42-1.66,1.2-1.15,2-1.37C154.8,132.13,156.94,130.88,157.5,127.49Zm-2.87-1.09c2.12-.27,3.59-1.2,3.38-3.63s-.72-4.69-3.7-4.57c-2.48.11-3.23,2.07-3.23,4.28S152,126.33,154.63,126.4Z" transform="translate(-4.52 -11.74)"/><path class="cls-1" d="M167.78,116.21c2.05.14,4,.43,5,2.62a4.33,4.33,0,0,1-1.13,5.17c-.62.64-1.53,1-.07,1.85a4.25,4.25,0,0,1,2.09,5.15c-.63,2.36-2.47,3.34-4.66,3.8a6.82,6.82,0,0,1-2.66.09c-1.31-.25-3.7.08-3.44-1.64.31-2.1,2.17-.2,3.3-.19,2.31,0,4.51-.17,5-2.79s-1.45-3.67-3.79-4.07c-.78-.13-2.06.37-2.05-1s1.33-.75,2.07-1c1.83-.57,3.5-1.38,3.14-3.64s-2.1-2.52-4.09-2.38c-1,.07-2.59,1.89-3-.19-.25-1.37,1.81-1.21,2.89-1.63A5.76,5.76,0,0,1,167.78,116.21Z" transform="translate(-4.52 -11.74)"/><path class="cls-1" d="M209.68,115.55h3.69c.72,0,1.37.13,1.33,1.06s-.77.93-1.45.94a14.1,14.1,0,0,1-2.68,0c-3-.53-3.75.72-3.65,3.61.09,2.39.5,3.56,3.12,3.13a15.24,15.24,0,0,1,3,0c.56,0,1.11.11,1.19.85.08.93-.54,1-1.25,1.15-2,.35-4.66-1.12-5.76.91-.84,1.56-.18,3.92-.22,5.93,0,.83.23,1.84-1.21,1.85s-1.37-.82-1.37-1.77c0-5.23,0-10.46,0-15.7,0-1.41.41-2.07,1.9-2C207.43,115.62,208.56,115.55,209.68,115.55Z" transform="translate(-4.52 -11.74)"/><path class="cls-1" d="M192.29,118.23h-7.45c-.67,0-1.38,0-1.43-1s.65-1,1.34-1c2.91,0,5.82,0,8.73,0,1.91,0,1.6,1.16,1.12,2.23-2.36,5.16-4.8,10.28-7.16,15.44a1.57,1.57,0,0,1-2.16,1c-1.2-.51-.2-1.32.06-1.89C187.53,128.25,189.78,123.53,192.29,118.23Z" transform="translate(-4.52 -11.74)"/><path class="cls-1" d="M180.74,133.39c-.18.94-.72,1.61-1.76,1.5a1.6,1.6,0,0,1-1.5-1.81,1.47,1.47,0,0,1,1.76-1.49A1.53,1.53,0,0,1,180.74,133.39Z" transform="translate(-4.52 -11.74)"/></svg>