<?xml version="1.0" encoding="utf-8"?>
<!-- Generator: Adobe Illustrator 24.3.0, SVG Export Plug-In . SVG Version: 6.00 Build 0)  -->
<svg version="1.1" xmlns="http://www.w3.org/2000/svg" xmlns:xlink="http://www.w3.org/1999/xlink" x="0px" y="0px"
	 viewBox="0 0 139.2 138.4" style="enable-background:new 0 0 139.2 138.4;" xml:space="preserve">
<style type="text/css">
	.st0{display:none;}
	.st1{display:inline;}
	.st2{fill:none;stroke:#FFFFFF;stroke-width:10;stroke-miterlimit:10;}
	.st3{fill:#FFFFFF;}
</style>
<g id="Calque_1" class="st0">
	<g class="st1">
		<ellipse class="st2" cx="69.6" cy="69.2" rx="61.2" ry="61.2"/>
		<polygon class="st3" points="97,69.2 57.5,38.3 57.5,100.1 		"/>
	</g>
</g>
<g id="Calque_2">
	<g>
		<path class="st3" d="M74.2,134.7c-3.3,0-6.6,0-10,0c-0.1-0.4-0.5-0.2-0.8-0.3c-5.3-0.6-10.6-1.7-15.7-3.5
			C16.1,119.7-2,86.3,6,53.7C13.7,22.1,43.8,0.8,76,4c13.1,1.3,24.9,6.1,35.1,14.5c13.5,11.2,21.4,25.6,23.6,43.1
			c0.1,0.8-0.1,1.7,0.4,2.4c0,3.5,0,7,0,10.5c-0.4,0.1-0.2,0.5-0.3,0.8c-0.4,3.9-1.1,7.7-2.1,11.4c-7,25.6-29.1,44.4-55.6,47.5
			C76.2,134.4,75.1,134.2,74.2,134.7z M14.9,69.2c0,30.1,24.6,54.7,54.7,54.7c30.1,0,54.7-24.5,54.7-54.6
			c0.1-30.1-24.6-54.8-54.7-54.8C39.5,14.5,14.9,39.1,14.9,69.2z"/>
		<path class="st3" d="M64,69.3c0,6.4,0,12.8,0,19.2c0,2.3-1.2,3.9-3.2,4.8c-2,0.9-3.9,0.6-5.6-0.8c-1.3-1.1-1.9-2.5-1.9-4.2
			c0-12.7,0-25.4,0-38.1c0-3.1,2.4-5.5,5.4-5.5c3,0,5.3,2.4,5.3,5.5C64.1,56.6,64,62.9,64,69.3C64,69.3,64,69.3,64,69.3z"/>
		<path class="st3" d="M75.2,69.2c0-6.3,0-12.7,0-19c0-3.7,3.3-6.1,6.8-5.2c2.4,0.7,3.9,2.8,3.9,5.6c0,6.8,0,13.6,0,20.4
			c0,5.7,0,11.3,0,17c0,3.9-3.2,6.5-6.8,5.5c-2.4-0.6-3.9-2.7-3.9-5.3C75.2,81.8,75.2,75.5,75.2,69.2z"/>
	</g>
</g>
</svg>
